PathFileType	4	(X/Y/Z)	D:\TRACE\spot_10-12-23\spot_arm_body_motion_1_5-platform.trc
DataRate	CameraRate	NumFrames	NumMarkers	Units	OrigDataRate	OrigDataStartFrame	OrigNumFrames
100.00	100.00	      54	5	mm	100.00	6126	      7000
Frame#	Time	Left_Front			Right_Front			Left_Aft			Right_Aft			Post			
		X1	Y1	Z1	X2	Y2	Z2	X3	Y3	Z3	X4	Y4	Z4	X5	Y5	Z5	

6126	61.250	-776.48022	39.71208	-644.18744	791.06946	37.35167	-619.80939	-709.07025	-7.15617	493.40143	698.94635	-12.87094	594.79858	11.17184	780.29431	-924.01880	
6127	61.260	-775.57574	40.06497	-644.14459	792.13336	37.61097	-619.69623	-707.89636	-7.16753	493.51764	700.04932	-13.02511	595.25671	12.17581	780.67578	-924.12646	
6128	61.270	-774.58179	40.39719	-644.19751	793.15155	37.89895	-619.57263	-706.86615	-7.29621	493.50079	701.02167	-13.14638	595.32178	13.27135	781.08539	-924.17963	
6129	61.280	-773.53046	40.55581	-644.07825	794.17572	38.11075	-619.48718	-705.80347	-7.46926	493.52853	701.98688	-13.12272	595.49432	14.21871	781.41815	-924.14832	
6130	61.290	-772.64868	40.70945	-643.94202	795.07874	38.30016	-619.34375	-704.97870	-7.64722	493.55093	703.04865	-13.27652	595.67590	14.96421	781.61932	-923.94781	
6131	61.300	-771.70404	40.87748	-643.95654	796.00195	38.49322	-619.39447	-704.07220	-7.81768	493.59360	704.05200	-13.45375	595.72937	15.92648	781.78668	-923.47919	
6132	61.310	-770.81366	41.01822	-644.00891	796.92505	38.56927	-619.44507	-703.05084	-7.92722	493.73776	704.88275	-13.58002	595.78571	16.83080	781.94922	-923.10956	
6133	61.320	-769.69727	41.05259	-643.77692	797.89294	38.83963	-619.28802	-702.07434	-7.99421	493.79379	705.75012	-13.64970	595.86780	17.84645	782.26605	-922.49475	
6134	61.330	-768.79736	41.36900	-643.62061	798.89856	38.99148	-619.22339	-701.16937	-8.09047	493.83908	706.84167	-13.92857	595.62695	18.89926	782.46832	-921.87799	
6135	61.340	-767.88605	41.60420	-643.68439	799.70258	39.00212	-619.24561	-700.14148	-8.14887	493.81717	707.79871	-13.85121	595.81860	19.88378	782.58923	-921.33673	
6136	61.350	-766.79810	41.41357	-643.84589	800.64374	38.86576	-619.11774	-699.22650	-8.19557	493.81506	708.59723	-13.96420	595.89069	20.70210	782.72827	-920.86658	
6137	61.360	-766.01532	41.53097	-643.52728	801.67810	39.13136	-619.16254	-698.25031	-8.39102	493.93964	709.57666	-14.19397	595.96448	21.42117	782.86481	-920.48138	
6138	61.370	-764.80579	41.62915	-643.60352	802.56848	39.28054	-619.12701	-697.37579	-8.48862	493.97729	710.41315	-14.19309	596.05615	22.55817	783.10083	-920.11926	
6139	61.380	-764.07300	41.82604	-643.65350	803.64026	39.45597	-619.06360	-696.31689	-8.57406	493.99902	711.46387	-14.09443	596.14838	23.47109	783.26715	-920.13043	
6140	61.390	-763.26489	41.81006	-643.58069	804.46918	39.69057	-618.98065	-695.43909	-8.56697	494.03784	712.54352	-14.16019	596.32611	24.28664	783.51672	-920.35413	
6141	61.400	-762.15613	41.68196	-643.38922	805.45282	39.74886	-618.93005	-694.64459	-8.64972	494.05164	713.37402	-14.30166	596.49353	25.19174	783.78461	-920.43927	
6142	61.410	-761.25903	42.04069	-643.32263	806.46210	39.90847	-618.86725	-693.61115	-8.85464	494.13251	714.19263	-14.36068	596.86987	26.20222	783.82855	-920.59924	
6143	61.420	-760.43939	42.21938	-643.28143	807.22040	40.20613	-618.84772	-692.64899	-8.98585	494.17151	715.19879	-14.54803	596.91791	27.24215	783.96741	-920.75525	
6144	61.430	-759.47974	42.43177	-643.22705	808.23950	40.30260	-618.76135	-691.74756	-9.13704	494.18787	716.15094	-14.62337	596.99615	28.13372	784.21729	-920.81079	
6145	61.440	-758.27002	42.38830	-643.35504	809.22327	40.54691	-618.58325	-690.84027	-9.20405	494.18320	717.01239	-14.61347	597.02246	28.97281	784.50934	-920.94427	
6146	61.450	-757.28644	42.42187	-643.26556	809.99530	40.64542	-618.62555	-690.05444	-9.18381	494.26102	717.92120	-15.17282	596.02264	29.86440	784.78656	-920.75879	
6147	61.460	-756.74823	42.50489	-643.31018	810.98114	40.52955	-618.60999	-689.11719	-9.18563	494.37170	718.91498	-15.27956	596.00049	46.19368	718.32336	-954.43768	
6148	61.470	-755.82861	42.48954	-643.30048	811.72968	40.69709	-618.59137	-688.34595	-9.44761	494.46109	719.67407	-15.43816	595.98218	84.42842	721.18079	-933.15326	
6149	61.480	-754.89227	42.75104	-643.11798	812.73975	40.79991	-618.61707	-687.39984	-9.44911	494.39493	720.53735	-15.41804	596.06177	32.33043	784.95233	-919.43188	
6150	61.490	-754.07556	42.88586	-643.04315	813.48578	40.90837	-618.61560	-686.56293	-9.46428	494.37744	721.46954	-15.31931	596.06348	33.32316	785.10260	-918.77466	
6151	61.500	-753.26495	42.90342	-643.07605	814.29724	40.91139	-618.51428	-685.74683	-9.47217	494.47015	722.40771	-15.38012	596.17175	34.13174	785.37427	-918.49030	
6152	61.510	-752.55389	43.13450	-643.13885	815.01068	40.71758	-618.48901	-684.76837	-9.45828	494.42352	722.95282	-15.62117	595.75165	34.83486	785.29388	-918.04163	
6153	61.520	-751.67828	43.25801	-643.01624	815.90363	40.94527	-618.55487	-684.02460	-9.56854	494.44403	723.91718	-15.56801	596.25836	35.82928	785.27991	-917.67084	
6154	61.530	-750.93134	43.27364	-642.91809	816.80676	40.87409	-618.47705	-683.17780	-9.62264	494.49960	724.75568	-15.60144	596.32635	88.75351	721.36951	-932.10541	
6155	61.540	-750.08160	43.30673	-642.91223	817.70898	40.98980	-618.41638	-682.32373	-9.55454	494.54840	725.52850	-15.60640	596.33832	37.62019	785.39874	-917.91553	
6156	61.550	-749.36163	43.46794	-643.05579	818.50470	41.16026	-618.44379	-681.52356	-9.53807	494.55063	726.53992	-15.54144	596.30048	38.21370	785.52148	-918.05457	
6157	61.560	-748.52649	43.57616	-643.03705	819.23529	41.21858	-618.45898	-680.79382	-9.65317	494.54620	727.25500	-15.73345	596.31396	38.93264	785.68744	-918.39307	
6158	61.570	-747.81927	43.62949	-642.88068	820.04865	41.38668	-618.31519	-680.11005	-9.72879	494.70166	727.90735	-15.79703	596.31512	39.80627	785.82513	-918.79108	
6159	61.580	-746.79797	43.28443	-642.77747	820.79865	41.50245	-618.32172	-679.39740	-9.75994	494.62787	728.74084	-15.77442	596.32867	40.58348	785.82544	-919.06927	
6160	61.590	-746.37140	43.90234	-642.98944	821.52991	41.48850	-618.32764	-678.42889	-9.88811	494.61679	729.60016	-15.83900	596.34912	41.18155	786.00006	-919.12122	
6161	61.600	-745.47241	43.61316	-642.93549	822.31866	41.48002	-618.26965	-677.57428	-9.85532	494.70642	730.22620	-15.92341	596.38654	23.68889	719.51740	-934.37274	
6162	61.610	-744.64142	43.48349	-642.97229	823.13300	41.44176	-618.22180	-677.08118	-9.94195	494.73181	730.91364	-15.90823	596.30737	42.82012	786.00848	-919.10022	
6163	61.620	-743.92303	43.47079	-642.76740	823.79846	41.41568	-618.22015	-676.35193	-9.85696	494.61740	731.60034	-15.85565	596.32513	43.61148	786.00690	-918.90796	
6164	61.630	-743.16376	43.36399	-642.77716	824.41089	41.43709	-618.18384	-675.47772	-9.90501	494.63910	732.39764	-15.85236	596.31854	44.01300	785.97784	-918.65717	
6165	61.640	-742.59320	43.29088	-642.81653	825.10303	41.34818	-618.20099	-674.97437	-9.82616	494.57095	732.95599	-15.84596	596.34277	44.59367	785.93024	-918.18030	
6166	61.650	-741.99817	43.31766	-642.85614	825.80737	41.34523	-618.21991	-674.50964	-9.88585	494.61365	733.78369	-15.75412	596.31500	45.33542	785.85083	-917.89563	
6167	61.660	-741.41748	43.35968	-642.99390	826.30115	41.32704	-618.25995	-673.75232	-9.76268	494.59106	734.47266	-15.60160	596.33777	46.09394	785.96143	-917.67712	
6168	61.670	-740.69806	43.26035	-643.01654	826.93829	41.17802	-618.35413	-672.91833	-9.61001	494.66403	734.90955	-15.64436	596.33423	46.70947	785.79620	-917.58295	
6169	61.680	-739.91968	42.98877	-642.91467	827.60297	41.08823	-618.31476	-672.51746	-9.60690	494.66248	735.32318	-15.72788	595.90881	47.25450	785.57391	-917.56976	
6170	61.690	-739.23389	42.64846	-642.86609	828.25952	41.06139	-618.29657	-671.92657	-9.64181	494.68442	736.12573	-15.59183	596.39520	47.77398	785.45435	-917.61633	
6171	61.700	-738.91193	42.84020	-642.76392	828.77667	41.05187	-618.29462	-671.35547	-9.70431	494.71341	736.66309	-15.55391	596.45532	48.29533	785.39380	-917.87671	
6172	61.710	-738.34540	42.92907	-642.81677	829.25580	41.07851	-618.35046	-670.63025	-9.63247	494.65063	737.32977	-15.63974	596.47803	48.99318	785.38989	-918.51343	
6173	61.720	-737.81757	42.95819	-642.95935	829.78839	41.17548	-618.31000	-670.19855	-9.54643	494.57883	737.72333	-15.59852	596.48602	49.53486	785.38226	-918.78094	
6174	61.730	-737.37286	42.94833	-642.97583	830.33813	41.15747	-618.30194	-669.80597	-9.47538	494.53558	738.28186	-15.50421	596.41791	50.04770	785.29840	-919.11737	
6175	61.740	-736.89557	43.04161	-642.81592	830.89526	41.00903	-618.29126	-669.36090	-9.47758	494.50546	738.72693	-15.41250	596.41302	50.52670	785.13098	-919.53571	
6176	61.750	-736.37762	42.97646	-642.66229	831.32703	40.88895	-618.34149	-668.84009	-9.47495	494.49295	739.19458	-15.31443	596.36621	50.93338	784.92737	-919.81604	
6177	61.760	-735.90961	42.45749	-642.74237	831.78967	40.54865	-618.38281	-668.48578	-9.33535	494.50534	739.71735	-15.10752	596.35474	51.37583	784.79126	-919.83826	
6178	61.770	-735.49451	42.18681	-642.91327	832.17450	40.48767	-618.39337	-668.00177	-9.10319	494.41391	740.07904	-15.00487	596.29553	51.79248	784.57648	-919.94849	
6179	61.780	-735.19092	42.15955	-642.94763	832.46259	40.47537	-618.45667	-667.63531	-9.06685	494.39047	740.44989	-14.89524	596.26740	52.04060	784.35590	-919.99347	
